<svg id="flat" height="512" viewBox="0 0 512 512" width="512" xmlns="http://www.w3.org/2000/svg"><path d="m64 368-40 120h16l64-112z" fill="#91c0ff"/><path d="m192 456h128v32h-128z" fill="#548aff"/><path d="m240 288h32v168h-32z" fill="#486be0"/><path d="m104 256h304v32h-304z" fill="#7dafff"/><path d="m312 152h-8v-8h-16v13.558l-16.255 16.255 11.315 11.313 17.126-17.126h11.814z" fill="#ffe28f"/><path d="m37.68065 208a13.68065 13.68065 0 0 1 13.15427 9.92228l22.46472 78.62653a40 40 0 0 0 30.61636 28.23438l81.9483 16.38966a17.5843 17.5843 0 0 1 14.1357 17.24282 17.5843 17.5843 0 0 1 -17.58429 17.58433h-102.41571a56 56 0 0 1 -56-56v-98.31935a13.68064 13.68064 0 0 1 13.68065-13.68065z" fill="#548aff"/><g fill="#91c0ff"><path d="m168 376 40 112h-16l-64-112z"/><path d="m448 368 40 120h-16l-64-112z"/><path d="m344 376-40 112h16l64-112z"/></g><path d="m474.31935 208a13.68065 13.68065 0 0 0 -13.15427 9.92228l-22.46472 78.62653a40 40 0 0 1 -30.61636 28.23438l-81.9483 16.38966a17.5843 17.5843 0 0 0 -14.1357 17.24282 17.5843 17.5843 0 0 0 17.58429 17.58433h102.41571a56 56 0 0 0 56-56v-98.31935a13.68064 13.68064 0 0 0 -13.68065-13.68065z" fill="#548aff"/><path d="m144 256 112 112 112-112z" fill="#548aff"/><path d="m144 184h16v56h-16z" fill="#bed3f7"/><path d="m120 256 7.12481-10.68721a29.89625 29.89625 0 0 1 24.87519-13.31279 29.89625 29.89625 0 0 1 24.87517 13.31279l7.12483 10.68721z" fill="#e0edff"/><path d="m352 184h16v56h-16z" fill="#bed3f7"/><path d="m328 256 7.12481-10.68721a29.89625 29.89625 0 0 1 24.87519-13.31279 29.89625 29.89625 0 0 1 24.87517 13.31279l7.12483 10.68721z" fill="#e0edff"/><path d="m200 232a53.8962 53.8962 0 0 0 44.84436 24h22.31124a53.8962 53.8962 0 0 0 44.8444-24z" fill="#e0edff"/><path d="m295.35425 189.55664a16.94238 16.94238 0 0 0 .64575-4.58606v-.00006a16.97047 16.97047 0 0 0 -16.97046-16.97052h-.00024a16.97093 16.97093 0 0 0 -12 4.97052l-11.0293 11.02948h-24a23.99993 23.99993 0 0 0 -24 23.99994v.00006a24 24 0 0 0 24 24h48a24 24 0 0 0 24-24v-.00006a23.94717 23.94717 0 0 0 -8.64575-18.4433z" fill="#ffa100"/><circle cx="256" cy="80" fill="#ffc431" r="56"/><path d="m256 144a64 64 0 1 1 64-64 64.07239 64.07239 0 0 1 -64 64zm0-112a48 48 0 1 0 48 48 48.05405 48.05405 0 0 0 -48-48z" fill="#ffe28f"/><path d="m288 88h-32a8.00008 8.00008 0 0 1 -8-8v-32h16v24h24z" fill="#ffe28f"/><rect fill="#f78e00" height="16" rx="8" transform="matrix(.707 -.707 .707 .707 -56.582 262.441)" width="23.996" x="276.486" y="191.516"/><path d="m176 128v40a24 24 0 0 1 -48 0v-40z" fill="#e0edff"/><path d="m176 160v8a24 24 0 0 1 -48 0v-8z" fill="#ffc431"/><path d="m384 128v40a24 24 0 0 1 -48 0v-40z" fill="#e0edff"/><path d="m384 160v8a24 24 0 0 1 -48 0v-8z" fill="#ffc431"/></svg>